<svg xmlns="http://www.w3.org/2000/svg" viewBox="0 0 24 24" role="img" aria-labelledby="discordTitle">
  <title id="discordTitle">Discord</title>
  <path fill="#FFE1FF" d="M20.32 4.37A19.8 19.8 0 0 0 15.4 2.8a.08.08 0 0 0-.08.04c-.21.38-.44.87-.6 1.26a18.27 18.27 0 0 0-5.45 0 12.64 12.64 0 0 0-.61-1.26.08.08 0 0 0-.08-.04 19.74 19.74 0 0 0-4.92 1.57.07.07 0 0 0-.03.03C.53 9.05-.32 13.58.1 18.06a.08.08 0 0 0 .03.06 19.9 19.9 0 0 0 6.03 3.05.08.08 0 0 0 .09-.03c.47-.65.88-1.33 1.23-2.05a.08.08 0 0 0-.04-.11 13.02 13.02 0 0 1-1.87-.9.08.08 0 0 1-.01-.13c.13-.1.26-.2.38-.3a.08.08 0 0 1 .08-.01c3.93 1.8 8.18 1.8 12.06 0a.08.08 0 0 1 .09 0c.12.1.25.2.38.3a.08.08 0 0 1-.01.13 12.3 12.3 0 0 1-1.87.9.08.08 0 0 0-.04.11c.36.72.77 1.4 1.23 2.05a.08.08 0 0 0 .09.03 19.83 19.83 0 0 0 6.03-3.05.08.08 0 0 0 .03-.06c.5-5.18-.84-9.67-3.55-13.66a.06.06 0 0 0-.03-.03ZM8.02 15.33c-1.18 0-2.15-1.08-2.15-2.4 0-1.33.95-2.4 2.15-2.4 1.2 0 2.17 1.08 2.15 2.4 0 1.32-.95 2.4-2.15 2.4Zm7.95 0c-1.18 0-2.15-1.08-2.15-2.4 0-1.33.95-2.4 2.15-2.4 1.2 0 2.17 1.08 2.15 2.4 0 1.32-.95 2.4-2.15 2.4Z"/>
</svg>
