<svg xmlns="http://www.w3.org/2000/svg"
     width="309" height="279" viewBox="0 0 309 279">

  <!-- background -->
  <rect width="309" height="279" fill="#0d1117" rx="6"/>

  <!-- subtle grid lines (every 5 rows) -->
  <line x1="2" y1="27" x2="307" y2="27" stroke="#1f6feb" stroke-width="0.3" opacity="0.25"/><line x1="2" y1="52" x2="307" y2="52" stroke="#1f6feb" stroke-width="0.3" opacity="0.25"/><line x1="2" y1="77" x2="307" y2="77" stroke="#1f6feb" stroke-width="0.3" opacity="0.25"/><line x1="2" y1="102" x2="307" y2="102" stroke="#1f6feb" stroke-width="0.3" opacity="0.25"/><line x1="2" y1="127" x2="307" y2="127" stroke="#1f6feb" stroke-width="0.3" opacity="0.25"/><line x1="2" y1="152" x2="307" y2="152" stroke="#1f6feb" stroke-width="0.3" opacity="0.25"/><line x1="2" y1="177" x2="307" y2="177" stroke="#1f6feb" stroke-width="0.3" opacity="0.25"/><line x1="2" y1="202" x2="307" y2="202" stroke="#1f6feb" stroke-width="0.3" opacity="0.25"/><line x1="2" y1="227" x2="307" y2="227" stroke="#1f6feb" stroke-width="0.3" opacity="0.25"/><line x1="2" y1="252" x2="307" y2="252" stroke="#1f6feb" stroke-width="0.3" opacity="0.25"/><line x1="2" y1="277" x2="307" y2="277" stroke="#1f6feb" stroke-width="0.3" opacity="0.25"/>

  <defs>
    <clipPath id="sweep">
      <rect x="0" y="0" width="309" height="0">
        <animate
          attributeName="height"
          values="0; 279; 279; 0"
          keyTimes="0; 0.8000; 0.9600; 1"
          dur="5.0s"
          repeatCount="indefinite"
          calcMode="linear"/>
      </rect>
    </clipPath>
  </defs>

  <!-- automaton cells, revealed by sweep -->
  <g clip-path="url(#sweep)">
    <rect x="152" y="2" width="5" height="5" fill="#58A6FF"/><rect x="147" y="7" width="5" height="5" fill="#58A6FF"/><rect x="157" y="7" width="5" height="5" fill="#58A6FF"/><rect x="142" y="12" width="5" height="5" fill="#58A6FF"/><rect x="162" y="12" width="5" height="5" fill="#58A6FF"/><rect x="137" y="17" width="5" height="5" fill="#58A6FF"/><rect x="147" y="17" width="5" height="5" fill="#58A6FF"/><rect x="157" y="17" width="5" height="5" fill="#58A6FF"/><rect x="167" y="17" width="5" height="5" fill="#58A6FF"/><rect x="132" y="22" width="5" height="5" fill="#58A6FF"/><rect x="172" y="22" width="5" height="5" fill="#58A6FF"/><rect x="127" y="27" width="5" height="5" fill="#58A6FF"/><rect x="137" y="27" width="5" height="5" fill="#58A6FF"/><rect x="167" y="27" width="5" height="5" fill="#58A6FF"/><rect x="177" y="27" width="5" height="5" fill="#58A6FF"/><rect x="122" y="32" width="5" height="5" fill="#58A6FF"/><rect x="142" y="32" width="5" height="5" fill="#58A6FF"/><rect x="162" y="32" width="5" height="5" fill="#58A6FF"/><rect x="182" y="32" width="5" height="5" fill="#58A6FF"/><rect x="117" y="37" width="5" height="5" fill="#58A6FF"/><rect x="127" y="37" width="5" height="5" fill="#58A6FF"/><rect x="137" y="37" width="5" height="5" fill="#58A6FF"/><rect x="147" y="37" width="5" height="5" fill="#58A6FF"/><rect x="157" y="37" width="5" height="5" fill="#58A6FF"/><rect x="167" y="37" width="5" height="5" fill="#58A6FF"/><rect x="177" y="37" width="5" height="5" fill="#58A6FF"/><rect x="187" y="37" width="5" height="5" fill="#58A6FF"/><rect x="112" y="42" width="5" height="5" fill="#58A6FF"/><rect x="192" y="42" width="5" height="5" fill="#58A6FF"/><rect x="107" y="47" width="5" height="5" fill="#58A6FF"/><rect x="117" y="47" width="5" height="5" fill="#58A6FF"/><rect x="187" y="47" width="5" height="5" fill="#58A6FF"/><rect x="197" y="47" width="5" height="5" fill="#58A6FF"/><rect x="102" y="52" width="5" height="5" fill="#58A6FF"/><rect x="122" y="52" width="5" height="5" fill="#58A6FF"/><rect x="182" y="52" width="5" height="5" fill="#58A6FF"/><rect x="202" y="52" width="5" height="5" fill="#58A6FF"/><rect x="97" y="57" width="5" height="5" fill="#58A6FF"/><rect x="107" y="57" width="5" height="5" fill="#58A6FF"/><rect x="117" y="57" width="5" height="5" fill="#58A6FF"/><rect x="127" y="57" width="5" height="5" fill="#58A6FF"/><rect x="177" y="57" width="5" height="5" fill="#58A6FF"/><rect x="187" y="57" width="5" height="5" fill="#58A6FF"/><rect x="197" y="57" width="5" height="5" fill="#58A6FF"/><rect x="207" y="57" width="5" height="5" fill="#58A6FF"/><rect x="92" y="62" width="5" height="5" fill="#58A6FF"/><rect x="132" y="62" width="5" height="5" fill="#58A6FF"/><rect x="172" y="62" width="5" height="5" fill="#58A6FF"/><rect x="212" y="62" width="5" height="5" fill="#58A6FF"/><rect x="87" y="67" width="5" height="5" fill="#58A6FF"/><rect x="97" y="67" width="5" height="5" fill="#58A6FF"/><rect x="127" y="67" width="5" height="5" fill="#58A6FF"/><rect x="137" y="67" width="5" height="5" fill="#58A6FF"/><rect x="167" y="67" width="5" height="5" fill="#58A6FF"/><rect x="177" y="67" width="5" height="5" fill="#58A6FF"/><rect x="207" y="67" width="5" height="5" fill="#58A6FF"/><rect x="217" y="67" width="5" height="5" fill="#58A6FF"/><rect x="82" y="72" width="5" height="5" fill="#58A6FF"/><rect x="102" y="72" width="5" height="5" fill="#58A6FF"/><rect x="122" y="72" width="5" height="5" fill="#58A6FF"/><rect x="142" y="72" width="5" height="5" fill="#58A6FF"/><rect x="162" y="72" width="5" height="5" fill="#58A6FF"/><rect x="182" y="72" width="5" height="5" fill="#58A6FF"/><rect x="202" y="72" width="5" height="5" fill="#58A6FF"/><rect x="222" y="72" width="5" height="5" fill="#58A6FF"/><rect x="77" y="77" width="5" height="5" fill="#58A6FF"/><rect x="87" y="77" width="5" height="5" fill="#58A6FF"/><rect x="97" y="77" width="5" height="5" fill="#58A6FF"/><rect x="107" y="77" width="5" height="5" fill="#58A6FF"/><rect x="117" y="77" width="5" height="5" fill="#58A6FF"/><rect x="127" y="77" width="5" height="5" fill="#58A6FF"/><rect x="137" y="77" width="5" height="5" fill="#58A6FF"/><rect x="147" y="77" width="5" height="5" fill="#58A6FF"/><rect x="157" y="77" width="5" height="5" fill="#58A6FF"/><rect x="167" y="77" width="5" height="5" fill="#58A6FF"/><rect x="177" y="77" width="5" height="5" fill="#58A6FF"/><rect x="187" y="77" width="5" height="5" fill="#58A6FF"/><rect x="197" y="77" width="5" height="5" fill="#58A6FF"/><rect x="207" y="77" width="5" height="5" fill="#58A6FF"/><rect x="217" y="77" width="5" height="5" fill="#58A6FF"/><rect x="227" y="77" width="5" height="5" fill="#58A6FF"/><rect x="72" y="82" width="5" height="5" fill="#58A6FF"/><rect x="232" y="82" width="5" height="5" fill="#58A6FF"/><rect x="67" y="87" width="5" height="5" fill="#58A6FF"/><rect x="77" y="87" width="5" height="5" fill="#58A6FF"/><rect x="227" y="87" width="5" height="5" fill="#58A6FF"/><rect x="237" y="87" width="5" height="5" fill="#58A6FF"/><rect x="62" y="92" width="5" height="5" fill="#58A6FF"/><rect x="82" y="92" width="5" height="5" fill="#58A6FF"/><rect x="222" y="92" width="5" height="5" fill="#58A6FF"/><rect x="242" y="92" width="5" height="5" fill="#58A6FF"/><rect x="57" y="97" width="5" height="5" fill="#58A6FF"/><rect x="67" y="97" width="5" height="5" fill="#58A6FF"/><rect x="77" y="97" width="5" height="5" fill="#58A6FF"/><rect x="87" y="97" width="5" height="5" fill="#58A6FF"/><rect x="217" y="97" width="5" height="5" fill="#58A6FF"/><rect x="227" y="97" width="5" height="5" fill="#58A6FF"/><rect x="237" y="97" width="5" height="5" fill="#58A6FF"/><rect x="247" y="97" width="5" height="5" fill="#58A6FF"/><rect x="52" y="102" width="5" height="5" fill="#58A6FF"/><rect x="92" y="102" width="5" height="5" fill="#58A6FF"/><rect x="212" y="102" width="5" height="5" fill="#58A6FF"/><rect x="252" y="102" width="5" height="5" fill="#58A6FF"/><rect x="47" y="107" width="5" height="5" fill="#58A6FF"/><rect x="57" y="107" width="5" height="5" fill="#58A6FF"/><rect x="87" y="107" width="5" height="5" fill="#58A6FF"/><rect x="97" y="107" width="5" height="5" fill="#58A6FF"/><rect x="207" y="107" width="5" height="5" fill="#58A6FF"/><rect x="217" y="107" width="5" height="5" fill="#58A6FF"/><rect x="247" y="107" width="5" height="5" fill="#58A6FF"/><rect x="257" y="107" width="5" height="5" fill="#58A6FF"/><rect x="42" y="112" width="5" height="5" fill="#58A6FF"/><rect x="62" y="112" width="5" height="5" fill="#58A6FF"/><rect x="82" y="112" width="5" height="5" fill="#58A6FF"/><rect x="102" y="112" width="5" height="5" fill="#58A6FF"/><rect x="202" y="112" width="5" height="5" fill="#58A6FF"/><rect x="222" y="112" width="5" height="5" fill="#58A6FF"/><rect x="242" y="112" width="5" height="5" fill="#58A6FF"/><rect x="262" y="112" width="5" height="5" fill="#58A6FF"/><rect x="37" y="117" width="5" height="5" fill="#58A6FF"/><rect x="47" y="117" width="5" height="5" fill="#58A6FF"/><rect x="57" y="117" width="5" height="5" fill="#58A6FF"/><rect x="67" y="117" width="5" height="5" fill="#58A6FF"/><rect x="77" y="117" width="5" height="5" fill="#58A6FF"/><rect x="87" y="117" width="5" height="5" fill="#58A6FF"/><rect x="97" y="117" width="5" height="5" fill="#58A6FF"/><rect x="107" y="117" width="5" height="5" fill="#58A6FF"/><rect x="197" y="117" width="5" height="5" fill="#58A6FF"/><rect x="207" y="117" width="5" height="5" fill="#58A6FF"/><rect x="217" y="117" width="5" height="5" fill="#58A6FF"/><rect x="227" y="117" width="5" height="5" fill="#58A6FF"/><rect x="237" y="117" width="5" height="5" fill="#58A6FF"/><rect x="247" y="117" width="5" height="5" fill="#58A6FF"/><rect x="257" y="117" width="5" height="5" fill="#58A6FF"/><rect x="267" y="117" width="5" height="5" fill="#58A6FF"/><rect x="32" y="122" width="5" height="5" fill="#58A6FF"/><rect x="112" y="122" width="5" height="5" fill="#58A6FF"/><rect x="192" y="122" width="5" height="5" fill="#58A6FF"/><rect x="272" y="122" width="5" height="5" fill="#58A6FF"/><rect x="27" y="127" width="5" height="5" fill="#58A6FF"/><rect x="37" y="127" width="5" height="5" fill="#58A6FF"/><rect x="107" y="127" width="5" height="5" fill="#58A6FF"/><rect x="117" y="127" width="5" height="5" fill="#58A6FF"/><rect x="187" y="127" width="5" height="5" fill="#58A6FF"/><rect x="197" y="127" width="5" height="5" fill="#58A6FF"/><rect x="267" y="127" width="5" height="5" fill="#58A6FF"/><rect x="277" y="127" width="5" height="5" fill="#58A6FF"/><rect x="22" y="132" width="5" height="5" fill="#58A6FF"/><rect x="42" y="132" width="5" height="5" fill="#58A6FF"/><rect x="102" y="132" width="5" height="5" fill="#58A6FF"/><rect x="122" y="132" width="5" height="5" fill="#58A6FF"/><rect x="182" y="132" width="5" height="5" fill="#58A6FF"/><rect x="202" y="132" width="5" height="5" fill="#58A6FF"/><rect x="262" y="132" width="5" height="5" fill="#58A6FF"/><rect x="282" y="132" width="5" height="5" fill="#58A6FF"/><rect x="17" y="137" width="5" height="5" fill="#58A6FF"/><rect x="27" y="137" width="5" height="5" fill="#58A6FF"/><rect x="37" y="137" width="5" height="5" fill="#58A6FF"/><rect x="47" y="137" width="5" height="5" fill="#58A6FF"/><rect x="97" y="137" width="5" height="5" fill="#58A6FF"/><rect x="107" y="137" width="5" height="5" fill="#58A6FF"/><rect x="117" y="137" width="5" height="5" fill="#58A6FF"/><rect x="127" y="137" width="5" height="5" fill="#58A6FF"/><rect x="177" y="137" width="5" height="5" fill="#58A6FF"/><rect x="187" y="137" width="5" height="5" fill="#58A6FF"/><rect x="197" y="137" width="5" height="5" fill="#58A6FF"/><rect x="207" y="137" width="5" height="5" fill="#58A6FF"/><rect x="257" y="137" width="5" height="5" fill="#58A6FF"/><rect x="267" y="137" width="5" height="5" fill="#58A6FF"/><rect x="277" y="137" width="5" height="5" fill="#58A6FF"/><rect x="287" y="137" width="5" height="5" fill="#58A6FF"/><rect x="12" y="142" width="5" height="5" fill="#58A6FF"/><rect x="52" y="142" width="5" height="5" fill="#58A6FF"/><rect x="92" y="142" width="5" height="5" fill="#58A6FF"/><rect x="132" y="142" width="5" height="5" fill="#58A6FF"/><rect x="172" y="142" width="5" height="5" fill="#58A6FF"/><rect x="212" y="142" width="5" height="5" fill="#58A6FF"/><rect x="252" y="142" width="5" height="5" fill="#58A6FF"/><rect x="292" y="142" width="5" height="5" fill="#58A6FF"/><rect x="7" y="147" width="5" height="5" fill="#58A6FF"/><rect x="17" y="147" width="5" height="5" fill="#58A6FF"/><rect x="47" y="147" width="5" height="5" fill="#58A6FF"/><rect x="57" y="147" width="5" height="5" fill="#58A6FF"/><rect x="87" y="147" width="5" height="5" fill="#58A6FF"/><rect x="97" y="147" width="5" height="5" fill="#58A6FF"/><rect x="127" y="147" width="5" height="5" fill="#58A6FF"/><rect x="137" y="147" width="5" height="5" fill="#58A6FF"/><rect x="167" y="147" width="5" height="5" fill="#58A6FF"/><rect x="177" y="147" width="5" height="5" fill="#58A6FF"/><rect x="207" y="147" width="5" height="5" fill="#58A6FF"/><rect x="217" y="147" width="5" height="5" fill="#58A6FF"/><rect x="247" y="147" width="5" height="5" fill="#58A6FF"/><rect x="257" y="147" width="5" height="5" fill="#58A6FF"/><rect x="287" y="147" width="5" height="5" fill="#58A6FF"/><rect x="297" y="147" width="5" height="5" fill="#58A6FF"/><rect x="22" y="152" width="5" height="5" fill="#58A6FF"/><rect x="42" y="152" width="5" height="5" fill="#58A6FF"/><rect x="62" y="152" width="5" height="5" fill="#58A6FF"/><rect x="82" y="152" width="5" height="5" fill="#58A6FF"/><rect x="102" y="152" width="5" height="5" fill="#58A6FF"/><rect x="122" y="152" width="5" height="5" fill="#58A6FF"/><rect x="142" y="152" width="5" height="5" fill="#58A6FF"/><rect x="162" y="152" width="5" height="5" fill="#58A6FF"/><rect x="182" y="152" width="5" height="5" fill="#58A6FF"/><rect x="202" y="152" width="5" height="5" fill="#58A6FF"/><rect x="222" y="152" width="5" height="5" fill="#58A6FF"/><rect x="242" y="152" width="5" height="5" fill="#58A6FF"/><rect x="262" y="152" width="5" height="5" fill="#58A6FF"/><rect x="282" y="152" width="5" height="5" fill="#58A6FF"/><rect x="17" y="157" width="5" height="5" fill="#58A6FF"/><rect x="27" y="157" width="5" height="5" fill="#58A6FF"/><rect x="37" y="157" width="5" height="5" fill="#58A6FF"/><rect x="47" y="157" width="5" height="5" fill="#58A6FF"/><rect x="57" y="157" width="5" height="5" fill="#58A6FF"/><rect x="67" y="157" width="5" height="5" fill="#58A6FF"/><rect x="77" y="157" width="5" height="5" fill="#58A6FF"/><rect x="87" y="157" width="5" height="5" fill="#58A6FF"/><rect x="97" y="157" width="5" height="5" fill="#58A6FF"/><rect x="107" y="157" width="5" height="5" fill="#58A6FF"/><rect x="117" y="157" width="5" height="5" fill="#58A6FF"/><rect x="127" y="157" width="5" height="5" fill="#58A6FF"/><rect x="137" y="157" width="5" height="5" fill="#58A6FF"/><rect x="147" y="157" width="5" height="5" fill="#58A6FF"/><rect x="157" y="157" width="5" height="5" fill="#58A6FF"/><rect x="167" y="157" width="5" height="5" fill="#58A6FF"/><rect x="177" y="157" width="5" height="5" fill="#58A6FF"/><rect x="187" y="157" width="5" height="5" fill="#58A6FF"/><rect x="197" y="157" width="5" height="5" fill="#58A6FF"/><rect x="207" y="157" width="5" height="5" fill="#58A6FF"/><rect x="217" y="157" width="5" height="5" fill="#58A6FF"/><rect x="227" y="157" width="5" height="5" fill="#58A6FF"/><rect x="237" y="157" width="5" height="5" fill="#58A6FF"/><rect x="247" y="157" width="5" height="5" fill="#58A6FF"/><rect x="257" y="157" width="5" height="5" fill="#58A6FF"/><rect x="267" y="157" width="5" height="5" fill="#58A6FF"/><rect x="277" y="157" width="5" height="5" fill="#58A6FF"/><rect x="287" y="157" width="5" height="5" fill="#58A6FF"/><rect x="12" y="162" width="5" height="5" fill="#58A6FF"/><rect x="292" y="162" width="5" height="5" fill="#58A6FF"/><rect x="7" y="167" width="5" height="5" fill="#58A6FF"/><rect x="17" y="167" width="5" height="5" fill="#58A6FF"/><rect x="287" y="167" width="5" height="5" fill="#58A6FF"/><rect x="297" y="167" width="5" height="5" fill="#58A6FF"/><rect x="22" y="172" width="5" height="5" fill="#58A6FF"/><rect x="282" y="172" width="5" height="5" fill="#58A6FF"/><rect x="17" y="177" width="5" height="5" fill="#58A6FF"/><rect x="27" y="177" width="5" height="5" fill="#58A6FF"/><rect x="277" y="177" width="5" height="5" fill="#58A6FF"/><rect x="287" y="177" width="5" height="5" fill="#58A6FF"/><rect x="12" y="182" width="5" height="5" fill="#58A6FF"/><rect x="32" y="182" width="5" height="5" fill="#58A6FF"/><rect x="272" y="182" width="5" height="5" fill="#58A6FF"/><rect x="292" y="182" width="5" height="5" fill="#58A6FF"/><rect x="7" y="187" width="5" height="5" fill="#58A6FF"/><rect x="17" y="187" width="5" height="5" fill="#58A6FF"/><rect x="27" y="187" width="5" height="5" fill="#58A6FF"/><rect x="37" y="187" width="5" height="5" fill="#58A6FF"/><rect x="267" y="187" width="5" height="5" fill="#58A6FF"/><rect x="277" y="187" width="5" height="5" fill="#58A6FF"/><rect x="287" y="187" width="5" height="5" fill="#58A6FF"/><rect x="297" y="187" width="5" height="5" fill="#58A6FF"/><rect x="42" y="192" width="5" height="5" fill="#58A6FF"/><rect x="262" y="192" width="5" height="5" fill="#58A6FF"/><rect x="37" y="197" width="5" height="5" fill="#58A6FF"/><rect x="47" y="197" width="5" height="5" fill="#58A6FF"/><rect x="257" y="197" width="5" height="5" fill="#58A6FF"/><rect x="267" y="197" width="5" height="5" fill="#58A6FF"/><rect x="32" y="202" width="5" height="5" fill="#58A6FF"/><rect x="52" y="202" width="5" height="5" fill="#58A6FF"/><rect x="252" y="202" width="5" height="5" fill="#58A6FF"/><rect x="272" y="202" width="5" height="5" fill="#58A6FF"/><rect x="27" y="207" width="5" height="5" fill="#58A6FF"/><rect x="37" y="207" width="5" height="5" fill="#58A6FF"/><rect x="47" y="207" width="5" height="5" fill="#58A6FF"/><rect x="57" y="207" width="5" height="5" fill="#58A6FF"/><rect x="247" y="207" width="5" height="5" fill="#58A6FF"/><rect x="257" y="207" width="5" height="5" fill="#58A6FF"/><rect x="267" y="207" width="5" height="5" fill="#58A6FF"/><rect x="277" y="207" width="5" height="5" fill="#58A6FF"/><rect x="22" y="212" width="5" height="5" fill="#58A6FF"/><rect x="62" y="212" width="5" height="5" fill="#58A6FF"/><rect x="242" y="212" width="5" height="5" fill="#58A6FF"/><rect x="282" y="212" width="5" height="5" fill="#58A6FF"/><rect x="17" y="217" width="5" height="5" fill="#58A6FF"/><rect x="27" y="217" width="5" height="5" fill="#58A6FF"/><rect x="57" y="217" width="5" height="5" fill="#58A6FF"/><rect x="67" y="217" width="5" height="5" fill="#58A6FF"/><rect x="237" y="217" width="5" height="5" fill="#58A6FF"/><rect x="247" y="217" width="5" height="5" fill="#58A6FF"/><rect x="277" y="217" width="5" height="5" fill="#58A6FF"/><rect x="287" y="217" width="5" height="5" fill="#58A6FF"/><rect x="12" y="222" width="5" height="5" fill="#58A6FF"/><rect x="32" y="222" width="5" height="5" fill="#58A6FF"/><rect x="52" y="222" width="5" height="5" fill="#58A6FF"/><rect x="72" y="222" width="5" height="5" fill="#58A6FF"/><rect x="232" y="222" width="5" height="5" fill="#58A6FF"/><rect x="252" y="222" width="5" height="5" fill="#58A6FF"/><rect x="272" y="222" width="5" height="5" fill="#58A6FF"/><rect x="292" y="222" width="5" height="5" fill="#58A6FF"/><rect x="7" y="227" width="5" height="5" fill="#58A6FF"/><rect x="17" y="227" width="5" height="5" fill="#58A6FF"/><rect x="27" y="227" width="5" height="5" fill="#58A6FF"/><rect x="37" y="227" width="5" height="5" fill="#58A6FF"/><rect x="47" y="227" width="5" height="5" fill="#58A6FF"/><rect x="57" y="227" width="5" height="5" fill="#58A6FF"/><rect x="67" y="227" width="5" height="5" fill="#58A6FF"/><rect x="77" y="227" width="5" height="5" fill="#58A6FF"/><rect x="227" y="227" width="5" height="5" fill="#58A6FF"/><rect x="237" y="227" width="5" height="5" fill="#58A6FF"/><rect x="247" y="227" width="5" height="5" fill="#58A6FF"/><rect x="257" y="227" width="5" height="5" fill="#58A6FF"/><rect x="267" y="227" width="5" height="5" fill="#58A6FF"/><rect x="277" y="227" width="5" height="5" fill="#58A6FF"/><rect x="287" y="227" width="5" height="5" fill="#58A6FF"/><rect x="297" y="227" width="5" height="5" fill="#58A6FF"/><rect x="82" y="232" width="5" height="5" fill="#58A6FF"/><rect x="222" y="232" width="5" height="5" fill="#58A6FF"/><rect x="77" y="237" width="5" height="5" fill="#58A6FF"/><rect x="87" y="237" width="5" height="5" fill="#58A6FF"/><rect x="217" y="237" width="5" height="5" fill="#58A6FF"/><rect x="227" y="237" width="5" height="5" fill="#58A6FF"/><rect x="72" y="242" width="5" height="5" fill="#58A6FF"/><rect x="92" y="242" width="5" height="5" fill="#58A6FF"/><rect x="212" y="242" width="5" height="5" fill="#58A6FF"/><rect x="232" y="242" width="5" height="5" fill="#58A6FF"/><rect x="67" y="247" width="5" height="5" fill="#58A6FF"/><rect x="77" y="247" width="5" height="5" fill="#58A6FF"/><rect x="87" y="247" width="5" height="5" fill="#58A6FF"/><rect x="97" y="247" width="5" height="5" fill="#58A6FF"/><rect x="207" y="247" width="5" height="5" fill="#58A6FF"/><rect x="217" y="247" width="5" height="5" fill="#58A6FF"/><rect x="227" y="247" width="5" height="5" fill="#58A6FF"/><rect x="237" y="247" width="5" height="5" fill="#58A6FF"/><rect x="62" y="252" width="5" height="5" fill="#58A6FF"/><rect x="102" y="252" width="5" height="5" fill="#58A6FF"/><rect x="202" y="252" width="5" height="5" fill="#58A6FF"/><rect x="242" y="252" width="5" height="5" fill="#58A6FF"/><rect x="57" y="257" width="5" height="5" fill="#58A6FF"/><rect x="67" y="257" width="5" height="5" fill="#58A6FF"/><rect x="97" y="257" width="5" height="5" fill="#58A6FF"/><rect x="107" y="257" width="5" height="5" fill="#58A6FF"/><rect x="197" y="257" width="5" height="5" fill="#58A6FF"/><rect x="207" y="257" width="5" height="5" fill="#58A6FF"/><rect x="237" y="257" width="5" height="5" fill="#58A6FF"/><rect x="247" y="257" width="5" height="5" fill="#58A6FF"/><rect x="52" y="262" width="5" height="5" fill="#58A6FF"/><rect x="72" y="262" width="5" height="5" fill="#58A6FF"/><rect x="92" y="262" width="5" height="5" fill="#58A6FF"/><rect x="112" y="262" width="5" height="5" fill="#58A6FF"/><rect x="192" y="262" width="5" height="5" fill="#58A6FF"/><rect x="212" y="262" width="5" height="5" fill="#58A6FF"/><rect x="232" y="262" width="5" height="5" fill="#58A6FF"/><rect x="252" y="262" width="5" height="5" fill="#58A6FF"/><rect x="47" y="267" width="5" height="5" fill="#58A6FF"/><rect x="57" y="267" width="5" height="5" fill="#58A6FF"/><rect x="67" y="267" width="5" height="5" fill="#58A6FF"/><rect x="77" y="267" width="5" height="5" fill="#58A6FF"/><rect x="87" y="267" width="5" height="5" fill="#58A6FF"/><rect x="97" y="267" width="5" height="5" fill="#58A6FF"/><rect x="107" y="267" width="5" height="5" fill="#58A6FF"/><rect x="117" y="267" width="5" height="5" fill="#58A6FF"/><rect x="187" y="267" width="5" height="5" fill="#58A6FF"/><rect x="197" y="267" width="5" height="5" fill="#58A6FF"/><rect x="207" y="267" width="5" height="5" fill="#58A6FF"/><rect x="217" y="267" width="5" height="5" fill="#58A6FF"/><rect x="227" y="267" width="5" height="5" fill="#58A6FF"/><rect x="237" y="267" width="5" height="5" fill="#58A6FF"/><rect x="247" y="267" width="5" height="5" fill="#58A6FF"/><rect x="257" y="267" width="5" height="5" fill="#58A6FF"/><rect x="42" y="272" width="5" height="5" fill="#58A6FF"/><rect x="122" y="272" width="5" height="5" fill="#58A6FF"/><rect x="182" y="272" width="5" height="5" fill="#58A6FF"/><rect x="262" y="272" width="5" height="5" fill="#58A6FF"/>
  </g>

</svg>